HIERARCHY
ROOT Root
{
	OFFSET 0.00000 0.00000 0.00000
	CHANNELS 6 Xposition Yposition Zposition Zrotation Xrotation Yrotation
	JOINT Hip
	{
		OFFSET 0 0 0	
		CHANNELS 3 Zrotation Xrotation Yrotation
		JOINT Tummy
		{
			OFFSET 0 0.04 0	
			CHANNELS 3 Zrotation Xrotation Yrotation
			JOINT ChestBottom
			{
				OFFSET 0 0.194 0	
				CHANNELS 3 Zrotation Xrotation Yrotation
				JOINT ChestTop
				{
					OFFSET 0 0.166 0	
					CHANNELS 3 Zrotation Xrotation Yrotation
					JOINT LeftCollar
					{
						OFFSET 0 0.1 0	
						CHANNELS 3 Zrotation Xrotation Yrotation
						JOINT LeftUpperArm
						{
							OFFSET 0.156 -0.02 0.03	
							CHANNELS 3 Zrotation Xrotation Yrotation
							JOINT LeftForeArm
							{
								OFFSET 0.035 -0.27 -0.01	
								CHANNELS 3 Zrotation Xrotation Yrotation
								JOINT LeftHand
								{
									OFFSET 0.01 -0.27 0.01	
									CHANNELS 3 Zrotation Xrotation Yrotation
									End Site
									{
										OFFSET 0 -0.15 0
									}
								}
							}
						}
					}
					JOINT RightCollar
					{
						OFFSET 0 0.1 0	
						CHANNELS 3 Zrotation Xrotation Yrotation
						JOINT RightUpperArm
						{
							OFFSET -0.156 -0.02 0.03	
							CHANNELS 3 Zrotation Xrotation Yrotation
							JOINT RightForeArm
							{
								OFFSET -0.035 -0.27 -0.01	
								CHANNELS 3 Zrotation Xrotation Yrotation
								JOINT RightHand
								{
									OFFSET -0.01 -0.27 0.01	
									CHANNELS 3 Zrotation Xrotation Yrotation
									End Site
									{
										OFFSET 0 -0.15 0
									}
								}
							}
						}
					}
					JOINT Neck
					{
						OFFSET 0 0.1 0	
						CHANNELS 3 Zrotation Xrotation Yrotation
						JOINT Head
						{
							OFFSET 0 0.127 0.03	
							CHANNELS 3 Zrotation Xrotation Yrotation
							End Site
							{
								OFFSET 0 0.127 0.03
							}
						}
					}
				}
			}
		}
	}
	JOINT LeftHip
	{
		OFFSET 0 0 0	
		CHANNELS 3 Zrotation Xrotation Yrotation
		JOINT LeftThigh
		{
			OFFSET 0.088 -0.06 0	
			CHANNELS 3 Zrotation Xrotation Yrotation
			JOINT LeftLowerLeg
			{
				OFFSET 0 -0.39 0.02	
				CHANNELS 3 Zrotation Xrotation Yrotation
				JOINT LeftFootTop
				{
					OFFSET 0 -0.43 -0.02	
					CHANNELS 3 Zrotation Xrotation Yrotation
					JOINT LeftFootFront
					{
						OFFSET 0 -0.07 0.085	
						CHANNELS 3 Zrotation Xrotation Yrotation
						End Site
						{
							OFFSET 0 -0.005 0.09
						}
					}
				}
				JOINT LeftHeel
				{
					OFFSET 0 -0.43 -0.02	
					CHANNELS 3 Zrotation Xrotation Yrotation
					End Site
					{
						OFFSET 0 -0.075 -0.05
					}
				}
			}
		}
	}
	JOINT RightHip
	{
		OFFSET 0 0 0	
		CHANNELS 3 Zrotation Xrotation Yrotation
		JOINT RightThigh
		{
			OFFSET -0.088 -0.06 0	
			CHANNELS 3 Zrotation Xrotation Yrotation
			JOINT RightLowerLeg
			{
				OFFSET 0 -0.39 0.02	
				CHANNELS 3 Zrotation Xrotation Yrotation
				JOINT RightFootTop
				{
					OFFSET 0 -0.43 -0.02	
					CHANNELS 3 Zrotation Xrotation Yrotation
					JOINT RightFootFront
					{
						OFFSET 0 -0.07 0.085	
						CHANNELS 3 Zrotation Xrotation Yrotation
						End Site
						{
							OFFSET 0 -0.005 0.09
						}
					}
				}
				JOINT RightHeel
				{
					OFFSET 0 -0.43 -0.02	
					CHANNELS 3 Zrotation Xrotation Yrotation
					End Site
					{
						OFFSET 0 -0.075 -0.05
					}
				}
			}
		}
	}
}
MOTION
Frames: 19
Frame Time: 0.05
0 0.96978 0 -0 0 -0 -1.375 1.6135 -2.4657 0.2726 -1.0923 1.9489 0.2726 -1.0923 1.9489 0.22648 -0.9182 1.6367 -0 0 -0 3.5598 2.6055 0.06038 8.0354 -1.7563 -21.142 -0 0 -0 -0 0 -0 0.94682 3.2048 -8.9487 -6.0234 1.7918 2.4774 -0 0 -0 0.58378 0.35895 -5.2182 0.58378 0.35895 -5.2182 -1.375 1.6135 -2.4657 2.1159 2.434 -0.014973 -1.4977 1.3274 1.6282 -0 0 -0 -0 0 -0 -0 0 -0 -1.375 1.6135 -2.4657 -1.3166 -1.8446 3.4833 -1.0789 -6.1173 -3.2644 -0 0 -0 -0 0 -0 -0 0 -0 
0 0.96978 0 -0 0 -0 -1.3786 1.6084 -2.4825 0.28852 -1.0865 1.9702 0.28852 -1.0865 1.9702 0.23985 -0.91331 1.6546 -0 0 -0 3.5353 2.5793 0.0015451 8.0132 -1.7793 -21.104 -0 0 -0 -0 0 -0 0.93831 3.1743 -9.0035 -5.9856 1.7769 2.5235 -0 0 -0 0.5835 0.36934 -5.2246 0.5835 0.36934 -5.2246 -1.3786 1.6084 -2.4825 2.1299 2.4355 -0.019651 -1.502 1.3472 1.6515 -0 0 -0 -0 0 -0 -0 0 -0 -1.3786 1.6084 -2.4825 -1.31 -1.8081 3.5146 -1.0661 -6.1279 -3.2585 -0 0 -0 -0 0 -0 -0 0 -0 
0 0.96978 0 -0 0 -0 -1.3829 1.6027 -2.5 0.2708 -1.0815 2.0015 0.2708 -1.0815 2.0015 0.22493 -0.90909 1.6809 -0 0 -0 3.6049 2.5454 -0.087071 7.9946 -1.7996 -21.068 -0 0 -0 -0 0 -0 1.0269 3.1397 -9.0896 -5.9474 1.7611 2.572 -0 0 -0 0.62855 0.38659 -5.2492 0.62855 0.38659 -5.2492 -1.3829 1.6027 -2.5 2.1467 2.4311 -0.020157 -1.5045 1.3806 1.6784 -0 0 -0 -0 0 -0 -0 0 -0 -1.3829 1.6027 -2.5 -1.3006 -1.7778 3.5357 -1.059 -6.1352 -3.2541 -0 0 -0 -0 0 -0 -0 0 -0 
0 0.96978 0 -0 0 -0 -1.3985 1.588 -2.5202 0.27209 -1.0709 2.0153 0.27209 -1.0709 2.0153 0.22602 -0.90022 1.6925 -0 0 -0 3.6011 2.4882 -0.091032 8.0226 -1.7749 -21.069 -0 0 -0 -0 0 -0 1.0692 3.1091 -9.1225 -5.9186 1.7231 2.6297 -0 0 -0 0.64176 0.41238 -5.2528 0.64176 0.41238 -5.2528 -1.3985 1.588 -2.5202 2.1891 2.4401 -0.036376 -1.519 1.4003 1.7195 -0 0 -0 -0 0 -0 -0 0 -0 -1.3985 1.588 -2.5202 -1.2766 -1.7405 3.5629 -1.0579 -6.1204 -3.2587 -0 0 -0 -0 0 -0 -0 0 -0 
0 0.96978 0 -0 0 -0 -1.4011 1.5855 -2.5405 0.26468 -1.0649 2.0289 0.26468 -1.0649 2.0289 0.21979 -0.89518 1.7039 -0 0 -0 3.6024 2.4223 -0.14198 8.0578 -1.699 -21.024 -0 0 -0 -0 0 -0 1.1121 3.0605 -9.1118 -5.8947 1.708 2.6235 -0 0 -0 0.6483 0.44346 -5.2577 0.6483 0.44346 -5.2577 -1.4011 1.5855 -2.5405 2.1938 2.4373 -0.037046 -1.5165 1.4244 1.7492 -0 0 -0 -0 0 -0 -0 0 -0 -1.4011 1.5855 -2.5405 -1.2629 -1.7092 3.5628 -1.0547 -6.1112 -3.2394 -0 0 -0 -0 0 -0 -0 0 -0 
0 0.96978 0 -0 0 -0 -1.3987 1.5857 -2.5648 0.25838 -1.0622 2.0486 0.25838 -1.0622 2.0486 0.21448 -0.89286 1.7205 -0 0 -0 3.6232 2.3635 -0.24705 8.0699 -1.6275 -20.972 -0 0 -0 -0 0 -0 1.1219 3.0083 -9.162 -5.9012 1.7169 2.6316 -0 0 -0 0.64821 0.49255 -5.2641 0.64821 0.49255 -5.2641 -1.3987 1.5857 -2.5648 2.2001 2.4379 -0.036282 -1.5306 1.4556 1.7603 -0 0 -0 -0 0 -0 -0 0 -0 -1.3987 1.5857 -2.5648 -1.2665 -1.686 3.5685 -1.0304 -6.0886 -3.203 -0 0 -0 -0 0 -0 -0 0 -0 
0 0.96978 0 -0 0 -0 -1.3908 1.5832 -2.5937 0.25083 -1.0762 2.0666 0.25083 -1.0762 2.0666 0.20808 -0.9046 1.7356 -0 0 -0 3.6401 2.3934 -0.30913 8.0549 -1.6249 -20.95 -0 0 -0 -0 0 -0 1.1306 3.0374 -9.1779 -5.931 1.7274 2.6015 -0 0 -0 0.66228 0.57412 -5.2606 0.66228 0.57412 -5.2606 -1.3908 1.5832 -2.5937 2.1951 2.4414 -0.013495 -1.5357 1.4695 1.7659 -0 0 -0 -0 0 -0 -0 0 -0 -1.3908 1.5832 -2.5937 -1.2677 -1.669 3.5854 -1.0369 -6.0832 -3.1887 -0 0 -0 -0 0 -0 -0 0 -0 
0 0.96978 0 -0 0 -0 -1.3829 1.5665 -2.6179 0.2449 -1.0841 2.065 0.2449 -1.0841 2.065 0.20309 -0.91123 1.7343 -0 0 -0 3.6272 2.4254 -0.28462 8.0404 -1.6132 -20.973 -0 0 -0 -0 0 -0 1.113 3.1012 -9.1132 -5.9683 1.7317 2.5605 -0 0 -0 0.68371 0.61846 -5.2435 0.68371 0.61846 -5.2435 -1.3829 1.5665 -2.6179 2.1935 2.4632 0.0062269 -1.5431 1.4799 1.7704 -0 0 -0 -0 0 -0 -0 0 -0 -1.3829 1.5665 -2.6179 -1.2876 -1.6598 3.5986 -1.026 -6.0518 -3.1699 -0 0 -0 -0 0 -0 -0 0 -0 
0 0.96978 0 -0 0 -0 -1.3809 1.5596 -2.6442 0.24909 -1.0944 2.0592 0.24909 -1.0944 2.0592 0.20659 -0.91992 1.7294 -0 0 -0 3.5734 2.4383 -0.23804 8.0626 -1.5459 -21.019 -0 0 -0 -0 0 -0 1.061 3.1473 -9.0767 -6.0115 1.7585 2.5392 -0 0 -0 0.68699 0.63439 -5.2382 0.68699 0.63439 -5.2382 -1.3809 1.5596 -2.6442 2.1942 2.4635 0.034444 -1.5491 1.49 1.7783 -0 0 -0 -0 0 -0 -0 0 -0 -1.3809 1.5596 -2.6442 -1.2914 -1.6698 3.6169 -1.0169 -6.0143 -3.1386 -0 0 -0 -0 0 -0 -0 0 -0 
0 0.96978 0 -0 0 -0 -1.3656 1.5576 -2.6684 0.24732 -1.0928 2.0468 0.24732 -1.0928 2.0468 0.20512 -0.91858 1.7189 -0 0 -0 3.5253 2.4228 -0.2236 8.0907 -1.4708 -21.017 -0 0 -0 -0 0 -0 1.0315 3.1293 -9.042 -6.0678 1.8018 2.4845 -0 0 -0 0.68171 0.64301 -5.2325 0.68171 0.64301 -5.2325 -1.3656 1.5576 -2.6684 2.184 2.447 0.050587 -1.5642 1.515 1.7937 -0 0 -0 -0 0 -0 -0 0 -0 -1.3656 1.5576 -2.6684 -1.3216 -1.6751 3.6509 -1.0041 -6.0014 -3.1359 -0 0 -0 -0 0 -0 -0 0 -0 
0 0.96978 0 -0 0 -0 -1.3702 1.5437 -2.6781 0.25725 -1.0679 2.0265 0.25725 -1.0679 2.0265 0.21355 -0.89769 1.7019 -0 0 -0 3.4745 2.3805 -0.22714 8.0861 -1.4526 -21.02 -0 0 -0 -0 0 -0 0.98352 3.0922 -8.9999 -6.0829 1.8141 2.4234 -0 0 -0 0.6724 0.6482 -5.2226 0.6724 0.6482 -5.2226 -1.3702 1.5437 -2.6781 2.1896 2.4769 0.065025 -1.5768 1.4904 1.808 -0 0 -0 -0 0 -0 -0 0 -0 -1.3702 1.5437 -2.6781 -1.3354 -1.6619 3.6821 -0.99918 -5.9923 -3.1474 -0 0 -0 -0 0 -0 -0 0 -0 
0 0.96978 0 -0 0 -0 -1.367 1.542 -2.6958 0.26893 -1.0486 2.0066 0.26893 -1.0486 2.0066 0.22343 -0.88147 1.6852 -0 0 -0 3.4169 2.3497 -0.20099 8.0595 -1.4706 -21.027 -0 0 -0 -0 0 -0 0.95037 3.058 -8.9208 -6.1178 1.8586 2.393 -0 0 -0 0.6686 0.66413 -5.2069 0.6686 0.66413 -5.2069 -1.367 1.542 -2.6958 2.186 2.4866 0.07181 -1.5896 1.4751 1.8311 -0 0 -0 -0 0 -0 -0 0 -0 -1.367 1.542 -2.6958 -1.3508 -1.6616 3.7108 -0.99325 -5.9819 -3.15 -0 0 -0 -0 0 -0 -0 0 -0 
0 0.96978 0 -0 0 -0 -1.3625 1.5465 -2.7147 0.29976 -1.0324 1.9588 0.29976 -1.0324 1.9588 0.24942 -0.86788 1.645 -0 0 -0 3.3133 2.3236 -0.069377 8.051 -1.4952 -21.051 -0 0 -0 -0 0 -0 0.85861 3.0275 -8.7559 -6.142 1.9308 2.3904 -0 0 -0 0.63905 0.68512 -5.1555 0.63905 0.68512 -5.1555 -1.3625 1.5465 -2.7147 2.1808 2.4767 0.077796 -1.5998 1.4686 1.86 -0 0 -0 -0 0 -0 -0 0 -0 -1.3625 1.5465 -2.7147 -1.3733 -1.667 3.7267 -0.98546 -5.9846 -3.1499 -0 0 -0 -0 0 -0 -0 0 -0 
0 0.96978 0 -0 0 -0 -1.349 1.5691 -2.7279 0.32417 -1.0137 1.9109 0.32417 -1.0137 1.9109 0.27003 -0.85226 1.6047 -0 0 -0 3.2325 2.2414 0.090773 8.0557 -1.4852 -21.094 -0 0 -0 -0 0 -0 0.79582 2.9876 -8.605 -6.158 1.9558 2.4111 -0 0 -0 0.60815 0.67986 -5.1033 0.60815 0.67986 -5.1033 -1.349 1.5691 -2.7279 2.1603 2.45 0.074032 -1.5985 1.465 1.8929 -0 0 -0 -0 0 -0 -0 0 -0 -1.349 1.5691 -2.7279 -1.3908 -1.6857 3.733 -0.98807 -5.9893 -3.1325 -0 0 -0 -0 0 -0 -0 0 -0 
0 0.96978 0 -0 0 -0 -1.3404 1.5696 -2.7256 0.33886 -0.98364 1.8676 0.33886 -0.98364 1.8676 0.28249 -0.82701 1.5684 -0 0 -0 3.1959 2.1335 0.18026 8.0679 -1.4368 -21.101 -0 0 -0 -0 0 -0 0.76895 2.9439 -8.5115 -6.1482 1.9343 2.4463 -0 0 -0 0.59169 0.65711 -5.0577 0.59169 0.65711 -5.0577 -1.3404 1.5696 -2.7256 2.1381 2.4359 0.066496 -1.5878 1.4653 1.9046 -0 0 -0 -0 0 -0 -0 0 -0 -1.3404 1.5696 -2.7256 -1.4009 -1.6827 3.7358 -0.99597 -5.99 -3.1281 -0 0 -0 -0 0 -0 -0 0 -0 
0 0.96978 0 -0 0 -0 -1.3418 1.5643 -2.7346 0.34638 -0.93334 1.853 0.34638 -0.93334 1.853 0.28893 -0.78477 1.5562 -0 0 -0 3.2023 1.989 0.10845 8.0939 -1.4158 -21.065 -0 0 -0 -0 0 -0 0.74189 2.8205 -8.4945 -6.1273 1.9239 2.4879 -0 0 -0 0.59037 0.59722 -5.045 0.59037 0.59722 -5.045 -1.3418 1.5643 -2.7346 2.1263 2.4355 0.04963 -1.5625 1.4634 1.9433 -0 0 -0 -0 0 -0 -0 0 -0 -1.3418 1.5643 -2.7346 -1.403 -1.6686 3.7701 -1.0056 -6.009 -3.1554 -0 0 -0 -0 0 -0 -0 0 -0 
0 0.96978 0 -0 0 -0 -1.3558 1.5725 -2.7545 0.34366 -0.91296 1.8477 0.34366 -0.91296 1.8477 0.28669 -0.76764 1.5517 -0 0 -0 3.2909 1.925 0.011856 8.0779 -1.4343 -21.011 -0 0 -0 -0 0 -0 0.76154 2.7404 -8.4753 -6.1142 1.943 2.4486 -0 0 -0 0.62084 0.56742 -5.0456 0.62084 0.56742 -5.0456 -1.3558 1.5725 -2.7545 2.1355 2.4084 0.042909 -1.5592 1.4724 1.9741 -0 0 -0 -0 0 -0 -0 0 -0 -1.3558 1.5725 -2.7545 -1.4073 -1.6838 3.7725 -1.0013 -6.0086 -3.1417 -0 0 -0 -0 0 -0 -0 0 -0 
0 0.96978 0 -0 0 -0 -1.3568 1.5727 -2.7768 0.34785 -0.87936 1.84 0.34785 -0.87936 1.84 0.2903 -0.73942 1.5453 -0 0 -0 3.3138 1.8117 -0.023248 8.1089 -1.4431 -21 -0 0 -0 -0 0 -0 0.73866 2.6504 -8.4109 -6.1345 1.963 2.4044 -0 0 -0 0.64378 0.57835 -5.0956 0.64378 0.57835 -5.0956 -1.3568 1.5727 -2.7768 2.1305 2.3942 0.031192 -1.5531 1.4629 2.0072 -0 0 -0 -0 0 -0 -0 0 -0 -1.3568 1.5727 -2.7768 -1.4262 -1.7054 3.7706 -0.98305 -5.9977 -3.1165 -0 0 -0 -0 0 -0 -0 0 -0 
0 0.96978 0 -0 0 -0 -1.3606 1.5698 -2.8203 0.34436 -0.84433 1.8498 0.34436 -0.84433 1.8498 0.28743 -0.70999 1.5534 -0 0 -0 3.3556 1.6841 -0.10989 8.147 -1.4105 -20.95 -0 0 -0 -0 0 -0 0.73742 2.5897 -8.3589 -6.1407 1.9533 2.3791 -0 0 -0 0.65669 0.55273 -5.1216 0.65669 0.55273 -5.1216 -1.3606 1.5698 -2.8203 2.1425 2.3724 0.045568 -1.5648 1.4783 2.0336 -0 0 -0 -0 0 -0 -0 0 -0 -1.3606 1.5698 -2.8203 -1.4319 -1.6959 3.7946 -0.98197 -6.0065 -3.0871 -0 0 -0 -0 0 -0 -0 0 -0 
